<mxfile host="app.diagrams.net" agent="Mozilla/5.0 (Windows NT 10.0; Win64; x64; rv:131.0) Gecko/20100101 Firefox/131.0" version="24.7.17">
  <diagram name="Page-1" id="2YBvvXClWsGukQMizWep">
    <mxGraphModel dx="1167" dy="643" grid="1" gridSize="10" guides="1" tooltips="1" connect="1" arrows="1" fold="1" page="1" pageScale="1" pageWidth="850" pageHeight="1100" math="0" shadow="0">
      <root>
        <mxCell id="0" />
        <mxCell id="1" parent="0" />
        <mxCell id="Kvet3LoQC1dNZxQ-1I7i-1" value="Actor" style="shape=umlActor;verticalLabelPosition=bottom;verticalAlign=top;html=1;outlineConnect=0;" parent="1" vertex="1">
          <mxGeometry x="71" y="38" width="20" height="40" as="geometry" />
        </mxCell>
        <mxCell id="Kvet3LoQC1dNZxQ-1I7i-2" value="" style="html=1;points=[[0,0,0,0,5],[0,1,0,0,-5],[1,0,0,0,5],[1,1,0,0,-5]];perimeter=orthogonalPerimeter;outlineConnect=0;targetShapes=umlLifeline;portConstraint=eastwest;newEdgeStyle={&quot;curved&quot;:0,&quot;rounded&quot;:0};" parent="1" vertex="1">
          <mxGeometry x="76" y="108" width="10" height="922" as="geometry" />
        </mxCell>
        <mxCell id="Kvet3LoQC1dNZxQ-1I7i-5" value="" style="endArrow=classic;html=1;rounded=0;exitX=0.052;exitY=0.989;exitDx=0;exitDy=0;exitPerimeter=0;" parent="1" source="Kvet3LoQC1dNZxQ-1I7i-25" edge="1">
          <mxGeometry width="50" height="50" relative="1" as="geometry">
            <mxPoint x="100" y="163" as="sourcePoint" />
            <mxPoint x="200" y="163" as="targetPoint" />
          </mxGeometry>
        </mxCell>
        <mxCell id="Kvet3LoQC1dNZxQ-1I7i-7" value="LC:LoginController()" style="html=1;whiteSpace=wrap;" parent="1" vertex="1">
          <mxGeometry x="145" y="47" width="120" height="50" as="geometry" />
        </mxCell>
        <mxCell id="Kvet3LoQC1dNZxQ-1I7i-12" value="" style="html=1;points=[[0,0,0,0,5],[0,1,0,0,-5],[1,0,0,0,5],[1,1,0,0,-5]];perimeter=orthogonalPerimeter;outlineConnect=0;targetShapes=umlLifeline;portConstraint=eastwest;newEdgeStyle={&quot;curved&quot;:0,&quot;rounded&quot;:0};" parent="1" vertex="1">
          <mxGeometry x="200" y="163" width="10" height="857" as="geometry" />
        </mxCell>
        <mxCell id="Kvet3LoQC1dNZxQ-1I7i-15" value="" style="endArrow=none;dashed=1;html=1;dashPattern=1 3;strokeWidth=2;rounded=0;entryX=0.5;entryY=1;entryDx=0;entryDy=0;exitX=1.046;exitY=1.187;exitDx=0;exitDy=0;exitPerimeter=0;" parent="1" target="Kvet3LoQC1dNZxQ-1I7i-7" edge="1">
          <mxGeometry width="50" height="50" relative="1" as="geometry">
            <mxPoint x="204.60000000000014" y="163.61" as="sourcePoint" />
            <mxPoint x="160" y="258" as="targetPoint" />
          </mxGeometry>
        </mxCell>
        <mxCell id="Kvet3LoQC1dNZxQ-1I7i-16" value="LoginView:LoginGUI" style="html=1;whiteSpace=wrap;" parent="1" vertex="1">
          <mxGeometry x="370" y="48" width="120" height="50" as="geometry" />
        </mxCell>
        <mxCell id="Kvet3LoQC1dNZxQ-1I7i-18" value="" style="endArrow=none;dashed=1;html=1;dashPattern=1 3;strokeWidth=2;rounded=0;entryX=0.5;entryY=1;entryDx=0;entryDy=0;" parent="1" source="Kvet3LoQC1dNZxQ-1I7i-17" target="Kvet3LoQC1dNZxQ-1I7i-16" edge="1">
          <mxGeometry width="50" height="50" relative="1" as="geometry">
            <mxPoint x="470" y="148" as="sourcePoint" />
            <mxPoint x="430" y="118" as="targetPoint" />
          </mxGeometry>
        </mxCell>
        <mxCell id="Kvet3LoQC1dNZxQ-1I7i-19" value="" style="endArrow=classic;html=1;rounded=0;" parent="1" target="Kvet3LoQC1dNZxQ-1I7i-17" edge="1">
          <mxGeometry width="50" height="50" relative="1" as="geometry">
            <mxPoint x="210" y="178" as="sourcePoint" />
            <mxPoint x="410" y="178" as="targetPoint" />
          </mxGeometry>
        </mxCell>
        <mxCell id="Kvet3LoQC1dNZxQ-1I7i-20" value="" style="endArrow=none;dashed=1;html=1;dashPattern=1 3;strokeWidth=2;rounded=0;entryX=0.5;entryY=1;entryDx=0;entryDy=0;exitX=1.046;exitY=1.187;exitDx=0;exitDy=0;exitPerimeter=0;" parent="1" target="Kvet3LoQC1dNZxQ-1I7i-17" edge="1">
          <mxGeometry width="50" height="50" relative="1" as="geometry">
            <mxPoint x="430" y="184" as="sourcePoint" />
            <mxPoint x="430" y="98" as="targetPoint" />
          </mxGeometry>
        </mxCell>
        <mxCell id="Kvet3LoQC1dNZxQ-1I7i-17" value="" style="html=1;points=[[0,0,0,0,5],[0,1,0,0,-5],[1,0,0,0,5],[1,1,0,0,-5]];perimeter=orthogonalPerimeter;outlineConnect=0;targetShapes=umlLifeline;portConstraint=eastwest;newEdgeStyle={&quot;curved&quot;:0,&quot;rounded&quot;:0};" parent="1" vertex="1">
          <mxGeometry x="425" y="178" width="10" height="45" as="geometry" />
        </mxCell>
        <mxCell id="Kvet3LoQC1dNZxQ-1I7i-22" value="" style="endArrow=block;dashed=1;endFill=0;endSize=12;html=1;rounded=0;exitX=0;exitY=1;exitDx=0;exitDy=-5;exitPerimeter=0;" parent="1" source="Kvet3LoQC1dNZxQ-1I7i-17" target="Kvet3LoQC1dNZxQ-1I7i-12" edge="1">
          <mxGeometry width="160" relative="1" as="geometry">
            <mxPoint x="390" y="308" as="sourcePoint" />
            <mxPoint x="250" y="228" as="targetPoint" />
          </mxGeometry>
        </mxCell>
        <mxCell id="Kvet3LoQC1dNZxQ-1I7i-23" value="3:&lt;span style=&quot;background-color: initial;&quot;&gt;NomeUtente.getText()&lt;/span&gt;" style="text;html=1;align=center;verticalAlign=middle;resizable=0;points=[];autosize=1;strokeColor=none;fillColor=none;" parent="1" vertex="1">
          <mxGeometry x="240" y="146" width="150" height="30" as="geometry" />
        </mxCell>
        <mxCell id="Kvet3LoQC1dNZxQ-1I7i-25" value="2:ActionAccedi()" style="text;html=1;align=center;verticalAlign=middle;resizable=0;points=[];autosize=1;strokeColor=none;fillColor=none;" parent="1" vertex="1">
          <mxGeometry x="86" y="133" width="110" height="30" as="geometry" />
        </mxCell>
        <mxCell id="Kvet3LoQC1dNZxQ-1I7i-26" value="&lt;font style=&quot;font-size: 11px;&quot;&gt;4:NU&lt;/font&gt;" style="text;html=1;align=center;verticalAlign=middle;resizable=0;points=[];autosize=1;strokeColor=none;fillColor=none;" parent="1" vertex="1">
          <mxGeometry x="290" y="210" width="50" height="30" as="geometry" />
        </mxCell>
        <mxCell id="Kvet3LoQC1dNZxQ-1I7i-28" value="" style="endArrow=none;dashed=1;html=1;dashPattern=1 3;strokeWidth=2;rounded=0;" parent="1" edge="1">
          <mxGeometry width="50" height="50" relative="1" as="geometry">
            <mxPoint x="431" y="277" as="sourcePoint" />
            <mxPoint x="431" y="227" as="targetPoint" />
          </mxGeometry>
        </mxCell>
        <mxCell id="Kvet3LoQC1dNZxQ-1I7i-42" value="" style="endArrow=classic;html=1;rounded=0;" parent="1" target="Kvet3LoQC1dNZxQ-1I7i-44" edge="1">
          <mxGeometry width="50" height="50" relative="1" as="geometry">
            <mxPoint x="211" y="279" as="sourcePoint" />
            <mxPoint x="411" y="279" as="targetPoint" />
          </mxGeometry>
        </mxCell>
        <mxCell id="Kvet3LoQC1dNZxQ-1I7i-43" value="" style="endArrow=none;dashed=1;html=1;dashPattern=1 3;strokeWidth=2;rounded=0;entryX=0.5;entryY=1;entryDx=0;entryDy=0;exitX=1.046;exitY=1.187;exitDx=0;exitDy=0;exitPerimeter=0;" parent="1" target="Kvet3LoQC1dNZxQ-1I7i-44" edge="1">
          <mxGeometry width="50" height="50" relative="1" as="geometry">
            <mxPoint x="431" y="285" as="sourcePoint" />
            <mxPoint x="431" y="199" as="targetPoint" />
          </mxGeometry>
        </mxCell>
        <mxCell id="Kvet3LoQC1dNZxQ-1I7i-44" value="" style="html=1;points=[[0,0,0,0,5],[0,1,0,0,-5],[1,0,0,0,5],[1,1,0,0,-5]];perimeter=orthogonalPerimeter;outlineConnect=0;targetShapes=umlLifeline;portConstraint=eastwest;newEdgeStyle={&quot;curved&quot;:0,&quot;rounded&quot;:0};" parent="1" vertex="1">
          <mxGeometry x="426" y="279" width="10" height="45" as="geometry" />
        </mxCell>
        <mxCell id="Kvet3LoQC1dNZxQ-1I7i-45" value="" style="endArrow=block;dashed=1;endFill=0;endSize=12;html=1;rounded=0;exitX=0;exitY=1;exitDx=0;exitDy=-5;exitPerimeter=0;" parent="1" source="Kvet3LoQC1dNZxQ-1I7i-44" edge="1">
          <mxGeometry width="160" relative="1" as="geometry">
            <mxPoint x="391" y="409" as="sourcePoint" />
            <mxPoint x="211" y="319" as="targetPoint" />
            <Array as="points">
              <mxPoint x="320" y="320" />
            </Array>
          </mxGeometry>
        </mxCell>
        <mxCell id="Kvet3LoQC1dNZxQ-1I7i-46" value="5:PasswordField&lt;span style=&quot;background-color: initial;&quot;&gt;.getPassword()&lt;/span&gt;" style="text;html=1;align=center;verticalAlign=middle;resizable=0;points=[];autosize=1;strokeColor=none;fillColor=none;" parent="1" vertex="1">
          <mxGeometry x="221" y="247" width="190" height="30" as="geometry" />
        </mxCell>
        <mxCell id="Kvet3LoQC1dNZxQ-1I7i-47" value="&lt;span style=&quot;font-size: 11px;&quot;&gt;5:PSW&lt;/span&gt;" style="text;html=1;align=center;verticalAlign=middle;resizable=0;points=[];autosize=1;strokeColor=none;fillColor=none;" parent="1" vertex="1">
          <mxGeometry x="285" y="312" width="60" height="30" as="geometry" />
        </mxCell>
        <mxCell id="Kvet3LoQC1dNZxQ-1I7i-48" value="" style="endArrow=none;dashed=1;html=1;dashPattern=1 3;strokeWidth=2;rounded=0;" parent="1" edge="1">
          <mxGeometry width="50" height="50" relative="1" as="geometry">
            <mxPoint x="430" y="1030" as="sourcePoint" />
            <mxPoint x="432" y="326" as="targetPoint" />
          </mxGeometry>
        </mxCell>
        <mxCell id="Kvet3LoQC1dNZxQ-1I7i-51" value="ProfiliDao:ProfiliDao" style="html=1;whiteSpace=wrap;" parent="1" vertex="1">
          <mxGeometry x="601" y="48" width="120" height="50" as="geometry" />
        </mxCell>
        <mxCell id="Kvet3LoQC1dNZxQ-1I7i-52" value="" style="endArrow=none;dashed=1;html=1;dashPattern=1 3;strokeWidth=2;rounded=0;entryX=0.5;entryY=1;entryDx=0;entryDy=0;" parent="1" target="Kvet3LoQC1dNZxQ-1I7i-51" edge="1">
          <mxGeometry width="50" height="50" relative="1" as="geometry">
            <mxPoint x="661.0000000000002" y="359" as="sourcePoint" />
            <mxPoint x="661" y="120" as="targetPoint" />
          </mxGeometry>
        </mxCell>
        <mxCell id="Kvet3LoQC1dNZxQ-1I7i-53" value="" style="endArrow=none;dashed=1;html=1;dashPattern=1 3;strokeWidth=2;rounded=0;entryX=0.5;entryY=1;entryDx=0;entryDy=0;exitX=1.046;exitY=1.187;exitDx=0;exitDy=0;exitPerimeter=0;" parent="1" edge="1">
          <mxGeometry width="50" height="50" relative="1" as="geometry">
            <mxPoint x="661" y="365" as="sourcePoint" />
            <mxPoint x="661.0000000000002" y="404" as="targetPoint" />
          </mxGeometry>
        </mxCell>
        <mxCell id="Kvet3LoQC1dNZxQ-1I7i-60" value="" style="endArrow=classic;html=1;rounded=0;" parent="1" edge="1">
          <mxGeometry width="50" height="50" relative="1" as="geometry">
            <mxPoint x="210" y="362.44" as="sourcePoint" />
            <mxPoint x="656" y="362.44" as="targetPoint" />
          </mxGeometry>
        </mxCell>
        <mxCell id="Kvet3LoQC1dNZxQ-1I7i-61" value="" style="endArrow=none;dashed=1;html=1;dashPattern=1 3;strokeWidth=2;rounded=0;entryX=0.5;entryY=1;entryDx=0;entryDy=0;exitX=1.046;exitY=1.187;exitDx=0;exitDy=0;exitPerimeter=0;" parent="1" target="Kvet3LoQC1dNZxQ-1I7i-62" edge="1">
          <mxGeometry width="50" height="50" relative="1" as="geometry">
            <mxPoint x="661" y="365" as="sourcePoint" />
            <mxPoint x="661" y="279" as="targetPoint" />
          </mxGeometry>
        </mxCell>
        <mxCell id="Kvet3LoQC1dNZxQ-1I7i-62" value="" style="html=1;points=[[0,0,0,0,5],[0,1,0,0,-5],[1,0,0,0,5],[1,1,0,0,-5]];perimeter=orthogonalPerimeter;outlineConnect=0;targetShapes=umlLifeline;portConstraint=eastwest;newEdgeStyle={&quot;curved&quot;:0,&quot;rounded&quot;:0};" parent="1" vertex="1">
          <mxGeometry x="656" y="359" width="10" height="45" as="geometry" />
        </mxCell>
        <mxCell id="Kvet3LoQC1dNZxQ-1I7i-63" value="" style="endArrow=block;dashed=1;endFill=0;endSize=12;html=1;rounded=0;exitX=0;exitY=1;exitDx=0;exitDy=-5;exitPerimeter=0;" parent="1" source="Kvet3LoQC1dNZxQ-1I7i-62" target="Kvet3LoQC1dNZxQ-1I7i-12" edge="1">
          <mxGeometry width="160" relative="1" as="geometry">
            <mxPoint x="621" y="489" as="sourcePoint" />
            <mxPoint x="441" y="399" as="targetPoint" />
          </mxGeometry>
        </mxCell>
        <mxCell id="Kvet3LoQC1dNZxQ-1I7i-64" value="&lt;span style=&quot;font-size: 11px;&quot;&gt;10:Password&lt;/span&gt;" style="text;html=1;align=center;verticalAlign=middle;resizable=0;points=[];autosize=1;strokeColor=none;fillColor=none;" parent="1" vertex="1">
          <mxGeometry x="500" y="392" width="90" height="30" as="geometry" />
        </mxCell>
        <mxCell id="Kvet3LoQC1dNZxQ-1I7i-65" value="7:SelSigProfilo(NU)" style="text;html=1;align=center;verticalAlign=middle;resizable=0;points=[];autosize=1;strokeColor=none;fillColor=none;" parent="1" vertex="1">
          <mxGeometry x="481" y="328" width="130" height="30" as="geometry" />
        </mxCell>
        <mxCell id="Kvet3LoQC1dNZxQ-1I7i-67" value="Profili" style="html=1;whiteSpace=wrap;" parent="1" vertex="1">
          <mxGeometry x="770" y="48" width="80" height="50" as="geometry" />
        </mxCell>
        <mxCell id="Kvet3LoQC1dNZxQ-1I7i-68" value="" style="endArrow=none;dashed=1;html=1;dashPattern=1 3;strokeWidth=2;rounded=0;entryX=0.5;entryY=1;entryDx=0;entryDy=0;" parent="1" target="Kvet3LoQC1dNZxQ-1I7i-67" edge="1">
          <mxGeometry width="50" height="50" relative="1" as="geometry">
            <mxPoint x="812.0000000000002" y="360" as="sourcePoint" />
            <mxPoint x="812" y="121" as="targetPoint" />
          </mxGeometry>
        </mxCell>
        <mxCell id="Kvet3LoQC1dNZxQ-1I7i-69" value="" style="endArrow=none;dashed=1;html=1;dashPattern=1 3;strokeWidth=2;rounded=0;entryX=0.5;entryY=1;entryDx=0;entryDy=0;exitX=1.046;exitY=1.187;exitDx=0;exitDy=0;exitPerimeter=0;" parent="1" edge="1">
          <mxGeometry width="50" height="50" relative="1" as="geometry">
            <mxPoint x="812" y="366" as="sourcePoint" />
            <mxPoint x="812.0000000000002" y="405" as="targetPoint" />
          </mxGeometry>
        </mxCell>
        <mxCell id="Kvet3LoQC1dNZxQ-1I7i-70" value="" style="endArrow=none;dashed=1;html=1;dashPattern=1 3;strokeWidth=2;rounded=0;entryX=0.5;entryY=1;entryDx=0;entryDy=0;exitX=1.046;exitY=1.187;exitDx=0;exitDy=0;exitPerimeter=0;" parent="1" target="Kvet3LoQC1dNZxQ-1I7i-71" edge="1">
          <mxGeometry width="50" height="50" relative="1" as="geometry">
            <mxPoint x="812" y="366" as="sourcePoint" />
            <mxPoint x="812" y="280" as="targetPoint" />
          </mxGeometry>
        </mxCell>
        <mxCell id="Kvet3LoQC1dNZxQ-1I7i-71" value="" style="html=1;points=[[0,0,0,0,5],[0,1,0,0,-5],[1,0,0,0,5],[1,1,0,0,-5]];perimeter=orthogonalPerimeter;outlineConnect=0;targetShapes=umlLifeline;portConstraint=eastwest;newEdgeStyle={&quot;curved&quot;:0,&quot;rounded&quot;:0};" parent="1" vertex="1">
          <mxGeometry x="807" y="380" width="10" height="25" as="geometry" />
        </mxCell>
        <mxCell id="Kvet3LoQC1dNZxQ-1I7i-72" value="" style="endArrow=classic;html=1;rounded=0;" parent="1" source="Kvet3LoQC1dNZxQ-1I7i-62" edge="1">
          <mxGeometry width="50" height="50" relative="1" as="geometry">
            <mxPoint x="710" y="420" as="sourcePoint" />
            <mxPoint x="810" y="380" as="targetPoint" />
          </mxGeometry>
        </mxCell>
        <mxCell id="Kvet3LoQC1dNZxQ-1I7i-73" value="" style="endArrow=block;dashed=1;endFill=0;endSize=12;html=1;rounded=0;" parent="1" edge="1">
          <mxGeometry width="160" relative="1" as="geometry">
            <mxPoint x="796" y="404" as="sourcePoint" />
            <mxPoint x="666" y="404" as="targetPoint" />
            <Array as="points" />
          </mxGeometry>
        </mxCell>
        <mxCell id="Kvet3LoQC1dNZxQ-1I7i-74" value="8:getPassword()" style="text;html=1;align=center;verticalAlign=middle;resizable=0;points=[];autosize=1;strokeColor=none;fillColor=none;" parent="1" vertex="1">
          <mxGeometry x="679" y="348" width="110" height="30" as="geometry" />
        </mxCell>
        <mxCell id="Kvet3LoQC1dNZxQ-1I7i-75" value="&lt;span style=&quot;font-size: 11px;&quot;&gt;9:Password&lt;/span&gt;" style="text;html=1;align=center;verticalAlign=middle;resizable=0;points=[];autosize=1;strokeColor=none;fillColor=none;" parent="1" vertex="1">
          <mxGeometry x="693" y="402" width="80" height="30" as="geometry" />
        </mxCell>
        <mxCell id="Kvet3LoQC1dNZxQ-1I7i-78" value="GF: GestioneFinestre" style="html=1;whiteSpace=wrap;" parent="1" vertex="1">
          <mxGeometry x="890" y="48" width="120" height="50" as="geometry" />
        </mxCell>
        <mxCell id="Kvet3LoQC1dNZxQ-1I7i-80" value="" style="endArrow=none;dashed=1;html=1;dashPattern=1 3;strokeWidth=2;rounded=0;" parent="1" edge="1">
          <mxGeometry width="50" height="50" relative="1" as="geometry">
            <mxPoint x="950" y="1020" as="sourcePoint" />
            <mxPoint x="952" y="100" as="targetPoint" />
          </mxGeometry>
        </mxCell>
        <mxCell id="Kvet3LoQC1dNZxQ-1I7i-82" value="" style="endArrow=none;dashed=1;html=1;dashPattern=1 3;strokeWidth=2;rounded=0;entryX=0.5;entryY=1;entryDx=0;entryDy=0;" parent="1" edge="1">
          <mxGeometry width="50" height="50" relative="1" as="geometry">
            <mxPoint x="661" y="1020" as="sourcePoint" />
            <mxPoint x="661" y="403" as="targetPoint" />
          </mxGeometry>
        </mxCell>
        <mxCell id="Kvet3LoQC1dNZxQ-1I7i-83" value="" style="endArrow=none;dashed=1;html=1;dashPattern=1 3;strokeWidth=2;rounded=0;entryX=0.5;entryY=1;entryDx=0;entryDy=0;" parent="1" edge="1">
          <mxGeometry width="50" height="50" relative="1" as="geometry">
            <mxPoint x="812" y="1030" as="sourcePoint" />
            <mxPoint x="812" y="406" as="targetPoint" />
          </mxGeometry>
        </mxCell>
        <mxCell id="Kvet3LoQC1dNZxQ-1I7i-84" value="alt" style="shape=umlFrame;whiteSpace=wrap;html=1;pointerEvents=0;" parent="1" vertex="1">
          <mxGeometry x="40" y="682" width="1292" height="296" as="geometry" />
        </mxCell>
        <mxCell id="Kvet3LoQC1dNZxQ-1I7i-85" value="" style="endArrow=none;dashed=1;html=1;dashPattern=1 3;strokeWidth=2;rounded=0;entryX=0.5;entryY=1;entryDx=0;entryDy=0;exitX=1.046;exitY=1.187;exitDx=0;exitDy=0;exitPerimeter=0;" parent="1" edge="1">
          <mxGeometry width="50" height="50" relative="1" as="geometry">
            <mxPoint x="660" y="458" as="sourcePoint" />
            <mxPoint x="660.0000000000002" y="497" as="targetPoint" />
          </mxGeometry>
        </mxCell>
        <mxCell id="Kvet3LoQC1dNZxQ-1I7i-86" value="" style="endArrow=classic;html=1;rounded=0;" parent="1" target="Kvet3LoQC1dNZxQ-1I7i-88" edge="1">
          <mxGeometry width="50" height="50" relative="1" as="geometry">
            <mxPoint x="209" y="452" as="sourcePoint" />
            <mxPoint x="640" y="452" as="targetPoint" />
          </mxGeometry>
        </mxCell>
        <mxCell id="Kvet3LoQC1dNZxQ-1I7i-87" value="" style="endArrow=none;dashed=1;html=1;dashPattern=1 3;strokeWidth=2;rounded=0;entryX=0.5;entryY=1;entryDx=0;entryDy=0;exitX=1.046;exitY=1.187;exitDx=0;exitDy=0;exitPerimeter=0;" parent="1" target="Kvet3LoQC1dNZxQ-1I7i-88" edge="1">
          <mxGeometry width="50" height="50" relative="1" as="geometry">
            <mxPoint x="660" y="458" as="sourcePoint" />
            <mxPoint x="660" y="372" as="targetPoint" />
          </mxGeometry>
        </mxCell>
        <mxCell id="Kvet3LoQC1dNZxQ-1I7i-88" value="" style="html=1;points=[[0,0,0,0,5],[0,1,0,0,-5],[1,0,0,0,5],[1,1,0,0,-5]];perimeter=orthogonalPerimeter;outlineConnect=0;targetShapes=umlLifeline;portConstraint=eastwest;newEdgeStyle={&quot;curved&quot;:0,&quot;rounded&quot;:0};" parent="1" vertex="1">
          <mxGeometry x="655" y="452" width="10" height="45" as="geometry" />
        </mxCell>
        <mxCell id="Kvet3LoQC1dNZxQ-1I7i-89" value="" style="endArrow=block;dashed=1;endFill=0;endSize=12;html=1;rounded=0;exitX=0;exitY=1;exitDx=0;exitDy=-5;exitPerimeter=0;" parent="1" source="Kvet3LoQC1dNZxQ-1I7i-88" edge="1">
          <mxGeometry width="160" relative="1" as="geometry">
            <mxPoint x="620" y="582" as="sourcePoint" />
            <mxPoint x="209" y="492" as="targetPoint" />
          </mxGeometry>
        </mxCell>
        <mxCell id="Kvet3LoQC1dNZxQ-1I7i-90" value="&lt;span style=&quot;font-size: 11px;&quot;&gt;14:NomeUtente&lt;/span&gt;" style="text;html=1;align=center;verticalAlign=middle;resizable=0;points=[];autosize=1;strokeColor=none;fillColor=none;" parent="1" vertex="1">
          <mxGeometry x="494" y="485" width="100" height="30" as="geometry" />
        </mxCell>
        <mxCell id="Kvet3LoQC1dNZxQ-1I7i-91" value="11:SelSigProfilo(NU)" style="text;html=1;align=center;verticalAlign=middle;resizable=0;points=[];autosize=1;strokeColor=none;fillColor=none;" parent="1" vertex="1">
          <mxGeometry x="480" y="421" width="130" height="30" as="geometry" />
        </mxCell>
        <mxCell id="Kvet3LoQC1dNZxQ-1I7i-92" value="" style="endArrow=none;dashed=1;html=1;dashPattern=1 3;strokeWidth=2;rounded=0;entryX=0.5;entryY=1;entryDx=0;entryDy=0;exitX=1.046;exitY=1.187;exitDx=0;exitDy=0;exitPerimeter=0;" parent="1" edge="1">
          <mxGeometry width="50" height="50" relative="1" as="geometry">
            <mxPoint x="811" y="459" as="sourcePoint" />
            <mxPoint x="811.0000000000002" y="498" as="targetPoint" />
          </mxGeometry>
        </mxCell>
        <mxCell id="Kvet3LoQC1dNZxQ-1I7i-93" value="" style="endArrow=none;dashed=1;html=1;dashPattern=1 3;strokeWidth=2;rounded=0;entryX=0.5;entryY=1;entryDx=0;entryDy=0;exitX=1.046;exitY=1.187;exitDx=0;exitDy=0;exitPerimeter=0;" parent="1" target="Kvet3LoQC1dNZxQ-1I7i-94" edge="1">
          <mxGeometry width="50" height="50" relative="1" as="geometry">
            <mxPoint x="811" y="459" as="sourcePoint" />
            <mxPoint x="811" y="373" as="targetPoint" />
          </mxGeometry>
        </mxCell>
        <mxCell id="Kvet3LoQC1dNZxQ-1I7i-94" value="" style="html=1;points=[[0,0,0,0,5],[0,1,0,0,-5],[1,0,0,0,5],[1,1,0,0,-5]];perimeter=orthogonalPerimeter;outlineConnect=0;targetShapes=umlLifeline;portConstraint=eastwest;newEdgeStyle={&quot;curved&quot;:0,&quot;rounded&quot;:0};" parent="1" vertex="1">
          <mxGeometry x="806" y="473" width="10" height="25" as="geometry" />
        </mxCell>
        <mxCell id="Kvet3LoQC1dNZxQ-1I7i-95" value="" style="endArrow=classic;html=1;rounded=0;" parent="1" source="Kvet3LoQC1dNZxQ-1I7i-88" edge="1">
          <mxGeometry width="50" height="50" relative="1" as="geometry">
            <mxPoint x="709" y="513" as="sourcePoint" />
            <mxPoint x="809" y="473" as="targetPoint" />
          </mxGeometry>
        </mxCell>
        <mxCell id="Kvet3LoQC1dNZxQ-1I7i-96" value="" style="endArrow=block;dashed=1;endFill=0;endSize=12;html=1;rounded=0;" parent="1" edge="1">
          <mxGeometry width="160" relative="1" as="geometry">
            <mxPoint x="795" y="497" as="sourcePoint" />
            <mxPoint x="665" y="497" as="targetPoint" />
            <Array as="points" />
          </mxGeometry>
        </mxCell>
        <mxCell id="Kvet3LoQC1dNZxQ-1I7i-97" value="12:getNome_Utente()" style="text;html=1;align=center;verticalAlign=middle;resizable=0;points=[];autosize=1;strokeColor=none;fillColor=none;" parent="1" vertex="1">
          <mxGeometry x="663" y="441" width="140" height="30" as="geometry" />
        </mxCell>
        <mxCell id="Kvet3LoQC1dNZxQ-1I7i-98" value="&lt;span style=&quot;font-size: 11px;&quot;&gt;13:NomeUtente&lt;/span&gt;" style="text;html=1;align=center;verticalAlign=middle;resizable=0;points=[];autosize=1;strokeColor=none;fillColor=none;" parent="1" vertex="1">
          <mxGeometry x="682" y="495" width="100" height="30" as="geometry" />
        </mxCell>
        <mxCell id="Kvet3LoQC1dNZxQ-1I7i-102" value="PSW: String" style="html=1;whiteSpace=wrap;" parent="1" vertex="1">
          <mxGeometry x="1081" y="49" width="120" height="50" as="geometry" />
        </mxCell>
        <mxCell id="Kvet3LoQC1dNZxQ-1I7i-103" value="NU: String" style="html=1;whiteSpace=wrap;" parent="1" vertex="1">
          <mxGeometry x="1250" y="49" width="120" height="50" as="geometry" />
        </mxCell>
        <mxCell id="Kvet3LoQC1dNZxQ-1I7i-104" value="" style="endArrow=none;dashed=1;html=1;dashPattern=1 3;strokeWidth=2;rounded=0;" parent="1" source="Kvet3LoQC1dNZxQ-1I7i-111" edge="1">
          <mxGeometry width="50" height="50" relative="1" as="geometry">
            <mxPoint x="1144" y="928" as="sourcePoint" />
            <mxPoint x="1144" y="98" as="targetPoint" />
          </mxGeometry>
        </mxCell>
        <mxCell id="Kvet3LoQC1dNZxQ-1I7i-105" value="" style="endArrow=none;dashed=1;html=1;dashPattern=1 3;strokeWidth=2;rounded=0;" parent="1" edge="1">
          <mxGeometry width="50" height="50" relative="1" as="geometry">
            <mxPoint x="1308" y="1030" as="sourcePoint" />
            <mxPoint x="1308" y="99" as="targetPoint" />
          </mxGeometry>
        </mxCell>
        <mxCell id="Kvet3LoQC1dNZxQ-1I7i-110" value="" style="endArrow=classic;html=1;rounded=0;" parent="1" edge="1">
          <mxGeometry width="50" height="50" relative="1" as="geometry">
            <mxPoint x="210" y="540" as="sourcePoint" />
            <mxPoint x="1140" y="540" as="targetPoint" />
          </mxGeometry>
        </mxCell>
        <mxCell id="Kvet3LoQC1dNZxQ-1I7i-113" value="" style="endArrow=none;dashed=1;html=1;dashPattern=1 3;strokeWidth=2;rounded=0;" parent="1" target="Kvet3LoQC1dNZxQ-1I7i-111" edge="1">
          <mxGeometry width="50" height="50" relative="1" as="geometry">
            <mxPoint x="1144" y="1020" as="sourcePoint" />
            <mxPoint x="1144" y="98" as="targetPoint" />
          </mxGeometry>
        </mxCell>
        <mxCell id="Kvet3LoQC1dNZxQ-1I7i-111" value="" style="html=1;points=[[0,0,0,0,5],[0,1,0,0,-5],[1,0,0,0,5],[1,1,0,0,-5]];perimeter=orthogonalPerimeter;outlineConnect=0;targetShapes=umlLifeline;portConstraint=eastwest;newEdgeStyle={&quot;curved&quot;:0,&quot;rounded&quot;:0};" parent="1" vertex="1">
          <mxGeometry x="1140" y="540" width="10" height="30" as="geometry" />
        </mxCell>
        <mxCell id="Kvet3LoQC1dNZxQ-1I7i-114" value="" style="endArrow=block;dashed=1;endFill=0;endSize=12;html=1;rounded=0;exitX=0;exitY=1;exitDx=0;exitDy=-5;exitPerimeter=0;" parent="1" source="Kvet3LoQC1dNZxQ-1I7i-111" edge="1">
          <mxGeometry width="160" relative="1" as="geometry">
            <mxPoint x="658" y="565" as="sourcePoint" />
            <mxPoint x="212" y="565" as="targetPoint" />
          </mxGeometry>
        </mxCell>
        <mxCell id="Kvet3LoQC1dNZxQ-1I7i-115" value="compareTo(Password)" style="text;html=1;align=center;verticalAlign=middle;resizable=0;points=[];autosize=1;strokeColor=none;fillColor=none;" parent="1" vertex="1">
          <mxGeometry x="964" y="516" width="140" height="30" as="geometry" />
        </mxCell>
        <mxCell id="Kvet3LoQC1dNZxQ-1I7i-116" value="ComparedPassword" style="text;html=1;align=center;verticalAlign=middle;resizable=0;points=[];autosize=1;strokeColor=none;fillColor=none;" parent="1" vertex="1">
          <mxGeometry x="971" y="559" width="130" height="30" as="geometry" />
        </mxCell>
        <mxCell id="Kvet3LoQC1dNZxQ-1I7i-117" value="" style="endArrow=classic;html=1;rounded=0;" parent="1" source="Kvet3LoQC1dNZxQ-1I7i-12" edge="1">
          <mxGeometry width="50" height="50" relative="1" as="geometry">
            <mxPoint x="377" y="594" as="sourcePoint" />
            <mxPoint x="1307" y="594" as="targetPoint" />
          </mxGeometry>
        </mxCell>
        <mxCell id="Kvet3LoQC1dNZxQ-1I7i-118" value="" style="html=1;points=[[0,0,0,0,5],[0,1,0,0,-5],[1,0,0,0,5],[1,1,0,0,-5]];perimeter=orthogonalPerimeter;outlineConnect=0;targetShapes=umlLifeline;portConstraint=eastwest;newEdgeStyle={&quot;curved&quot;:0,&quot;rounded&quot;:0};" parent="1" vertex="1">
          <mxGeometry x="1307" y="594" width="10" height="30" as="geometry" />
        </mxCell>
        <mxCell id="Kvet3LoQC1dNZxQ-1I7i-119" value="" style="endArrow=block;dashed=1;endFill=0;endSize=12;html=1;rounded=0;exitX=0;exitY=1;exitDx=0;exitDy=-5;exitPerimeter=0;" parent="1" source="Kvet3LoQC1dNZxQ-1I7i-118" target="Kvet3LoQC1dNZxQ-1I7i-12" edge="1">
          <mxGeometry width="160" relative="1" as="geometry">
            <mxPoint x="793" y="619" as="sourcePoint" />
            <mxPoint x="347" y="619" as="targetPoint" />
          </mxGeometry>
        </mxCell>
        <mxCell id="Kvet3LoQC1dNZxQ-1I7i-120" value="compareTo(NomeUtente)" style="text;html=1;align=center;verticalAlign=middle;resizable=0;points=[];autosize=1;strokeColor=none;fillColor=none;" parent="1" vertex="1">
          <mxGeometry x="1143" y="570" width="160" height="30" as="geometry" />
        </mxCell>
        <mxCell id="Kvet3LoQC1dNZxQ-1I7i-121" value="ComparedNomeUtente" style="text;html=1;align=center;verticalAlign=middle;resizable=0;points=[];autosize=1;strokeColor=none;fillColor=none;" parent="1" vertex="1">
          <mxGeometry x="1148" y="613" width="150" height="30" as="geometry" />
        </mxCell>
        <mxCell id="Kvet3LoQC1dNZxQ-1I7i-123" value="" style="endArrow=none;dashed=1;html=1;dashPattern=1 3;strokeWidth=2;rounded=0;exitX=0.001;exitY=0.672;exitDx=0;exitDy=0;exitPerimeter=0;entryX=1.001;entryY=0.459;entryDx=0;entryDy=0;entryPerimeter=0;" parent="1" source="Kvet3LoQC1dNZxQ-1I7i-84" edge="1">
          <mxGeometry width="50" height="50" relative="1" as="geometry">
            <mxPoint x="136.8059999999998" y="881.904" as="sourcePoint" />
            <mxPoint x="1333.194" y="884.864" as="targetPoint" />
          </mxGeometry>
        </mxCell>
        <mxCell id="Kvet3LoQC1dNZxQ-1I7i-124" value="ComparedPassword==0 &amp;amp;&amp;amp; ComparedNomeUtente==0" style="rounded=0;whiteSpace=wrap;html=1;" parent="1" vertex="1">
          <mxGeometry x="121" y="690" width="315" height="20" as="geometry" />
        </mxCell>
        <mxCell id="Kvet3LoQC1dNZxQ-1I7i-125" value="" style="endArrow=classic;html=1;rounded=0;entryX=-0.429;entryY=0.075;entryDx=0;entryDy=0;entryPerimeter=0;" parent="1" edge="1">
          <mxGeometry width="50" height="50" relative="1" as="geometry">
            <mxPoint x="210" y="743" as="sourcePoint" />
            <mxPoint x="419.99400000000014" y="743" as="targetPoint" />
          </mxGeometry>
        </mxCell>
        <mxCell id="Kvet3LoQC1dNZxQ-1I7i-126" value="SetVisible(False)" style="text;html=1;align=center;verticalAlign=middle;resizable=0;points=[];autosize=1;strokeColor=none;fillColor=none;" parent="1" vertex="1">
          <mxGeometry x="265" y="715" width="110" height="30" as="geometry" />
        </mxCell>
        <mxCell id="Kvet3LoQC1dNZxQ-1I7i-128" value="" style="html=1;points=[[0,0,0,0,5],[0,1,0,0,-5],[1,0,0,0,5],[1,1,0,0,-5]];perimeter=orthogonalPerimeter;outlineConnect=0;targetShapes=umlLifeline;portConstraint=eastwest;newEdgeStyle={&quot;curved&quot;:0,&quot;rounded&quot;:0};" parent="1" vertex="1">
          <mxGeometry x="426" y="741" width="10" height="45" as="geometry" />
        </mxCell>
        <mxCell id="Kvet3LoQC1dNZxQ-1I7i-129" value="" style="endArrow=block;dashed=1;endFill=0;endSize=12;html=1;rounded=0;" parent="1" target="Kvet3LoQC1dNZxQ-1I7i-12" edge="1">
          <mxGeometry width="160" relative="1" as="geometry">
            <mxPoint x="426" y="786" as="sourcePoint" />
            <mxPoint x="296" y="786" as="targetPoint" />
            <Array as="points" />
          </mxGeometry>
        </mxCell>
        <mxCell id="Kvet3LoQC1dNZxQ-1I7i-130" value="" style="endArrow=classic;html=1;rounded=0;entryX=-0.429;entryY=0.075;entryDx=0;entryDy=0;entryPerimeter=0;" parent="1" edge="1">
          <mxGeometry width="50" height="50" relative="1" as="geometry">
            <mxPoint x="210" y="806" as="sourcePoint" />
            <mxPoint x="937.9940000000001" y="806" as="targetPoint" />
          </mxGeometry>
        </mxCell>
        <mxCell id="Kvet3LoQC1dNZxQ-1I7i-131" value="" style="html=1;points=[[0,0,0,0,5],[0,1,0,0,-5],[1,0,0,0,5],[1,1,0,0,-5]];perimeter=orthogonalPerimeter;outlineConnect=0;targetShapes=umlLifeline;portConstraint=eastwest;newEdgeStyle={&quot;curved&quot;:0,&quot;rounded&quot;:0};" parent="1" vertex="1">
          <mxGeometry x="944" y="804" width="10" height="45" as="geometry" />
        </mxCell>
        <mxCell id="Kvet3LoQC1dNZxQ-1I7i-132" value="" style="endArrow=block;dashed=1;endFill=0;endSize=12;html=1;rounded=0;" parent="1" edge="1">
          <mxGeometry width="160" relative="1" as="geometry">
            <mxPoint x="944" y="849" as="sourcePoint" />
            <mxPoint x="210" y="849" as="targetPoint" />
            <Array as="points" />
          </mxGeometry>
        </mxCell>
        <mxCell id="Kvet3LoQC1dNZxQ-1I7i-133" value="AccessoHome(NU)" style="text;html=1;align=center;verticalAlign=middle;resizable=0;points=[];autosize=1;strokeColor=none;fillColor=none;" parent="1" vertex="1">
          <mxGeometry x="808" y="778" width="130" height="30" as="geometry" />
        </mxCell>
        <mxCell id="Kvet3LoQC1dNZxQ-1I7i-141" value="" style="endArrow=block;dashed=1;endFill=0;endSize=12;html=1;rounded=0;" parent="1" target="Kvet3LoQC1dNZxQ-1I7i-2" edge="1">
          <mxGeometry x="0.0526" y="-17" width="160" relative="1" as="geometry">
            <mxPoint x="200" y="947" as="sourcePoint" />
            <mxPoint x="610" y="900" as="targetPoint" />
            <mxPoint as="offset" />
          </mxGeometry>
        </mxCell>
        <mxCell id="HGSxsRDStQla2Xzp-Bke-1" value="" style="endArrow=block;dashed=1;endFill=0;endSize=12;html=1;rounded=0;" parent="1" edge="1">
          <mxGeometry width="160" relative="1" as="geometry">
            <mxPoint x="200" y="862" as="sourcePoint" />
            <mxPoint x="86" y="862" as="targetPoint" />
          </mxGeometry>
        </mxCell>
        <mxCell id="8ojF17ntCebGxL0iMPKp-1" value="Se la condizione è falsa, compare su schermo uno JOptionPane che comunica all&#39;utente che i campi non sono corretti." style="shape=note2;boundedLbl=1;whiteSpace=wrap;html=1;size=25;verticalAlign=top;align=center;" vertex="1" parent="1">
          <mxGeometry x="250" y="1020" width="120" height="142" as="geometry" />
        </mxCell>
        <mxCell id="8ojF17ntCebGxL0iMPKp-2" value="" style="endArrow=none;dashed=1;html=1;dashPattern=1 3;strokeWidth=2;rounded=0;exitX=0;exitY=0;exitDx=47.50000000000001;exitDy=0;exitPerimeter=0;" edge="1" parent="1" source="8ojF17ntCebGxL0iMPKp-1">
          <mxGeometry width="50" height="50" relative="1" as="geometry">
            <mxPoint x="340" y="900" as="sourcePoint" />
            <mxPoint x="150" y="950" as="targetPoint" />
          </mxGeometry>
        </mxCell>
      </root>
    </mxGraphModel>
  </diagram>
</mxfile>
